<?xml version="1.0" encoding="utf-8" standalone="no"?>
<!DOCTYPE svg PUBLIC "-//W3C//DTD SVG 1.1//EN"
  "http://www.w3.org/Graphics/SVG/1.1/DTD/svg11.dtd">
<!-- Created with matplotlib (http://matplotlib.org/) -->
<svg height="345.6pt" version="1.1" viewBox="0 0 460.8 345.6" width="460.8pt" xmlns="http://www.w3.org/2000/svg" xmlns:xlink="http://www.w3.org/1999/xlink">
 <defs>
  <style type="text/css">
*{stroke-linecap:butt;stroke-linejoin:round;}
  </style>
 </defs>
 <g id="figure_1">
  <g id="patch_1">
   <path d="M 0 345.6 
L 460.8 345.6 
L 460.8 0 
L 0 0 
z
" style="fill:#ffffff;"/>
  </g>
  <g id="axes_1">
   <g id="patch_2">
    <path d="M 46.92 304.44 
L 448.28 304.44 
L 448.28 12.52 
L 46.92 12.52 
z
" style="fill:#ffffff;"/>
   </g>
   <g id="matplotlib.axis_1">
    <g id="xtick_1">
     <g id="line2d_1">
      <path clip-path="url(#p9d4e9544f2)" d="M 65.163636 304.44 
L 65.163636 12.52 
" style="fill:none;stroke:#b0b0b0;stroke-linecap:square;stroke-width:0.8;"/>
     </g>
     <g id="line2d_2">
      <defs>
       <path d="M 0 0 
L 0 3.5 
" id="m2159106c94" style="stroke:#000000;stroke-width:0.8;"/>
      </defs>
      <g>
       <use style="stroke:#000000;stroke-width:0.8;" x="65.163636" xlink:href="#m2159106c94" y="304.44"/>
      </g>
     </g>
     <g id="text_1">
      <!-- 0.0 -->
      <defs>
       <path d="M 31.78125 66.40625 
Q 24.171875 66.40625 20.328125 58.90625 
Q 16.5 51.421875 16.5 36.375 
Q 16.5 21.390625 20.328125 13.890625 
Q 24.171875 6.390625 31.78125 6.390625 
Q 39.453125 6.390625 43.28125 13.890625 
Q 47.125 21.390625 47.125 36.375 
Q 47.125 51.421875 43.28125 58.90625 
Q 39.453125 66.40625 31.78125 66.40625 
z
M 31.78125 74.21875 
Q 44.046875 74.21875 50.515625 64.515625 
Q 56.984375 54.828125 56.984375 36.375 
Q 56.984375 17.96875 50.515625 8.265625 
Q 44.046875 -1.421875 31.78125 -1.421875 
Q 19.53125 -1.421875 13.0625 8.265625 
Q 6.59375 17.96875 6.59375 36.375 
Q 6.59375 54.828125 13.0625 64.515625 
Q 19.53125 74.21875 31.78125 74.21875 
z
" id="DejaVuSans-30"/>
       <path d="M 10.6875 12.40625 
L 21 12.40625 
L 21 0 
L 10.6875 0 
z
" id="DejaVuSans-2e"/>
      </defs>
      <g transform="translate(57.212074 319.038437)scale(0.1 -0.1)">
       <use xlink:href="#DejaVuSans-30"/>
       <use x="63.623047" xlink:href="#DejaVuSans-2e"/>
       <use x="95.410156" xlink:href="#DejaVuSans-30"/>
      </g>
     </g>
    </g>
    <g id="xtick_2">
     <g id="line2d_3">
      <path clip-path="url(#p9d4e9544f2)" d="M 125.975758 304.44 
L 125.975758 12.52 
" style="fill:none;stroke:#b0b0b0;stroke-linecap:square;stroke-width:0.8;"/>
     </g>
     <g id="line2d_4">
      <g>
       <use style="stroke:#000000;stroke-width:0.8;" x="125.975758" xlink:href="#m2159106c94" y="304.44"/>
      </g>
     </g>
     <g id="text_2">
      <!-- 0.5 -->
      <defs>
       <path d="M 10.796875 72.90625 
L 49.515625 72.90625 
L 49.515625 64.59375 
L 19.828125 64.59375 
L 19.828125 46.734375 
Q 21.96875 47.46875 24.109375 47.828125 
Q 26.265625 48.1875 28.421875 48.1875 
Q 40.625 48.1875 47.75 41.5 
Q 54.890625 34.8125 54.890625 23.390625 
Q 54.890625 11.625 47.5625 5.09375 
Q 40.234375 -1.421875 26.90625 -1.421875 
Q 22.3125 -1.421875 17.546875 -0.640625 
Q 12.796875 0.140625 7.71875 1.703125 
L 7.71875 11.625 
Q 12.109375 9.234375 16.796875 8.0625 
Q 21.484375 6.890625 26.703125 6.890625 
Q 35.15625 6.890625 40.078125 11.328125 
Q 45.015625 15.765625 45.015625 23.390625 
Q 45.015625 31 40.078125 35.4375 
Q 35.15625 39.890625 26.703125 39.890625 
Q 22.75 39.890625 18.8125 39.015625 
Q 14.890625 38.140625 10.796875 36.28125 
z
" id="DejaVuSans-35"/>
      </defs>
      <g transform="translate(118.024195 319.038437)scale(0.1 -0.1)">
       <use xlink:href="#DejaVuSans-30"/>
       <use x="63.623047" xlink:href="#DejaVuSans-2e"/>
       <use x="95.410156" xlink:href="#DejaVuSans-35"/>
      </g>
     </g>
    </g>
    <g id="xtick_3">
     <g id="line2d_5">
      <path clip-path="url(#p9d4e9544f2)" d="M 186.787879 304.44 
L 186.787879 12.52 
" style="fill:none;stroke:#b0b0b0;stroke-linecap:square;stroke-width:0.8;"/>
     </g>
     <g id="line2d_6">
      <g>
       <use style="stroke:#000000;stroke-width:0.8;" x="186.787879" xlink:href="#m2159106c94" y="304.44"/>
      </g>
     </g>
     <g id="text_3">
      <!-- 1.0 -->
      <defs>
       <path d="M 12.40625 8.296875 
L 28.515625 8.296875 
L 28.515625 63.921875 
L 10.984375 60.40625 
L 10.984375 69.390625 
L 28.421875 72.90625 
L 38.28125 72.90625 
L 38.28125 8.296875 
L 54.390625 8.296875 
L 54.390625 0 
L 12.40625 0 
z
" id="DejaVuSans-31"/>
      </defs>
      <g transform="translate(178.836316 319.038437)scale(0.1 -0.1)">
       <use xlink:href="#DejaVuSans-31"/>
       <use x="63.623047" xlink:href="#DejaVuSans-2e"/>
       <use x="95.410156" xlink:href="#DejaVuSans-30"/>
      </g>
     </g>
    </g>
    <g id="xtick_4">
     <g id="line2d_7">
      <path clip-path="url(#p9d4e9544f2)" d="M 247.6 304.44 
L 247.6 12.52 
" style="fill:none;stroke:#b0b0b0;stroke-linecap:square;stroke-width:0.8;"/>
     </g>
     <g id="line2d_8">
      <g>
       <use style="stroke:#000000;stroke-width:0.8;" x="247.6" xlink:href="#m2159106c94" y="304.44"/>
      </g>
     </g>
     <g id="text_4">
      <!-- 1.5 -->
      <g transform="translate(239.648438 319.038437)scale(0.1 -0.1)">
       <use xlink:href="#DejaVuSans-31"/>
       <use x="63.623047" xlink:href="#DejaVuSans-2e"/>
       <use x="95.410156" xlink:href="#DejaVuSans-35"/>
      </g>
     </g>
    </g>
    <g id="xtick_5">
     <g id="line2d_9">
      <path clip-path="url(#p9d4e9544f2)" d="M 308.412121 304.44 
L 308.412121 12.52 
" style="fill:none;stroke:#b0b0b0;stroke-linecap:square;stroke-width:0.8;"/>
     </g>
     <g id="line2d_10">
      <g>
       <use style="stroke:#000000;stroke-width:0.8;" x="308.412121" xlink:href="#m2159106c94" y="304.44"/>
      </g>
     </g>
     <g id="text_5">
      <!-- 2.0 -->
      <defs>
       <path d="M 19.1875 8.296875 
L 53.609375 8.296875 
L 53.609375 0 
L 7.328125 0 
L 7.328125 8.296875 
Q 12.9375 14.109375 22.625 23.890625 
Q 32.328125 33.6875 34.8125 36.53125 
Q 39.546875 41.84375 41.421875 45.53125 
Q 43.3125 49.21875 43.3125 52.78125 
Q 43.3125 58.59375 39.234375 62.25 
Q 35.15625 65.921875 28.609375 65.921875 
Q 23.96875 65.921875 18.8125 64.3125 
Q 13.671875 62.703125 7.8125 59.421875 
L 7.8125 69.390625 
Q 13.765625 71.78125 18.9375 73 
Q 24.125 74.21875 28.421875 74.21875 
Q 39.75 74.21875 46.484375 68.546875 
Q 53.21875 62.890625 53.21875 53.421875 
Q 53.21875 48.921875 51.53125 44.890625 
Q 49.859375 40.875 45.40625 35.40625 
Q 44.1875 33.984375 37.640625 27.21875 
Q 31.109375 20.453125 19.1875 8.296875 
z
" id="DejaVuSans-32"/>
      </defs>
      <g transform="translate(300.460559 319.038437)scale(0.1 -0.1)">
       <use xlink:href="#DejaVuSans-32"/>
       <use x="63.623047" xlink:href="#DejaVuSans-2e"/>
       <use x="95.410156" xlink:href="#DejaVuSans-30"/>
      </g>
     </g>
    </g>
    <g id="xtick_6">
     <g id="line2d_11">
      <path clip-path="url(#p9d4e9544f2)" d="M 369.224242 304.44 
L 369.224242 12.52 
" style="fill:none;stroke:#b0b0b0;stroke-linecap:square;stroke-width:0.8;"/>
     </g>
     <g id="line2d_12">
      <g>
       <use style="stroke:#000000;stroke-width:0.8;" x="369.224242" xlink:href="#m2159106c94" y="304.44"/>
      </g>
     </g>
     <g id="text_6">
      <!-- 2.5 -->
      <g transform="translate(361.27268 319.038437)scale(0.1 -0.1)">
       <use xlink:href="#DejaVuSans-32"/>
       <use x="63.623047" xlink:href="#DejaVuSans-2e"/>
       <use x="95.410156" xlink:href="#DejaVuSans-35"/>
      </g>
     </g>
    </g>
    <g id="xtick_7">
     <g id="line2d_13">
      <path clip-path="url(#p9d4e9544f2)" d="M 430.036364 304.44 
L 430.036364 12.52 
" style="fill:none;stroke:#b0b0b0;stroke-linecap:square;stroke-width:0.8;"/>
     </g>
     <g id="line2d_14">
      <g>
       <use style="stroke:#000000;stroke-width:0.8;" x="430.036364" xlink:href="#m2159106c94" y="304.44"/>
      </g>
     </g>
     <g id="text_7">
      <!-- 3.0 -->
      <defs>
       <path d="M 40.578125 39.3125 
Q 47.65625 37.796875 51.625 33 
Q 55.609375 28.21875 55.609375 21.1875 
Q 55.609375 10.40625 48.1875 4.484375 
Q 40.765625 -1.421875 27.09375 -1.421875 
Q 22.515625 -1.421875 17.65625 -0.515625 
Q 12.796875 0.390625 7.625 2.203125 
L 7.625 11.71875 
Q 11.71875 9.328125 16.59375 8.109375 
Q 21.484375 6.890625 26.8125 6.890625 
Q 36.078125 6.890625 40.9375 10.546875 
Q 45.796875 14.203125 45.796875 21.1875 
Q 45.796875 27.640625 41.28125 31.265625 
Q 36.765625 34.90625 28.71875 34.90625 
L 20.21875 34.90625 
L 20.21875 43.015625 
L 29.109375 43.015625 
Q 36.375 43.015625 40.234375 45.921875 
Q 44.09375 48.828125 44.09375 54.296875 
Q 44.09375 59.90625 40.109375 62.90625 
Q 36.140625 65.921875 28.71875 65.921875 
Q 24.65625 65.921875 20.015625 65.03125 
Q 15.375 64.15625 9.8125 62.3125 
L 9.8125 71.09375 
Q 15.4375 72.65625 20.34375 73.4375 
Q 25.25 74.21875 29.59375 74.21875 
Q 40.828125 74.21875 47.359375 69.109375 
Q 53.90625 64.015625 53.90625 55.328125 
Q 53.90625 49.265625 50.4375 45.09375 
Q 46.96875 40.921875 40.578125 39.3125 
z
" id="DejaVuSans-33"/>
      </defs>
      <g transform="translate(422.084801 319.038437)scale(0.1 -0.1)">
       <use xlink:href="#DejaVuSans-33"/>
       <use x="63.623047" xlink:href="#DejaVuSans-2e"/>
       <use x="95.410156" xlink:href="#DejaVuSans-30"/>
      </g>
     </g>
    </g>
    <g id="text_8">
     <!-- Time -->
     <defs>
      <path d="M -0.296875 72.90625 
L 61.375 72.90625 
L 61.375 64.59375 
L 35.5 64.59375 
L 35.5 0 
L 25.59375 0 
L 25.59375 64.59375 
L -0.296875 64.59375 
z
" id="DejaVuSans-54"/>
      <path d="M 9.421875 54.6875 
L 18.40625 54.6875 
L 18.40625 0 
L 9.421875 0 
z
M 9.421875 75.984375 
L 18.40625 75.984375 
L 18.40625 64.59375 
L 9.421875 64.59375 
z
" id="DejaVuSans-69"/>
      <path d="M 52 44.1875 
Q 55.375 50.25 60.0625 53.125 
Q 64.75 56 71.09375 56 
Q 79.640625 56 84.28125 50.015625 
Q 88.921875 44.046875 88.921875 33.015625 
L 88.921875 0 
L 79.890625 0 
L 79.890625 32.71875 
Q 79.890625 40.578125 77.09375 44.375 
Q 74.3125 48.1875 68.609375 48.1875 
Q 61.625 48.1875 57.5625 43.546875 
Q 53.515625 38.921875 53.515625 30.90625 
L 53.515625 0 
L 44.484375 0 
L 44.484375 32.71875 
Q 44.484375 40.625 41.703125 44.40625 
Q 38.921875 48.1875 33.109375 48.1875 
Q 26.21875 48.1875 22.15625 43.53125 
Q 18.109375 38.875 18.109375 30.90625 
L 18.109375 0 
L 9.078125 0 
L 9.078125 54.6875 
L 18.109375 54.6875 
L 18.109375 46.1875 
Q 21.1875 51.21875 25.484375 53.609375 
Q 29.78125 56 35.6875 56 
Q 41.65625 56 45.828125 52.96875 
Q 50 49.953125 52 44.1875 
z
" id="DejaVuSans-6d"/>
      <path d="M 56.203125 29.59375 
L 56.203125 25.203125 
L 14.890625 25.203125 
Q 15.484375 15.921875 20.484375 11.0625 
Q 25.484375 6.203125 34.421875 6.203125 
Q 39.59375 6.203125 44.453125 7.46875 
Q 49.3125 8.734375 54.109375 11.28125 
L 54.109375 2.78125 
Q 49.265625 0.734375 44.1875 -0.34375 
Q 39.109375 -1.421875 33.890625 -1.421875 
Q 20.796875 -1.421875 13.15625 6.1875 
Q 5.515625 13.8125 5.515625 26.8125 
Q 5.515625 40.234375 12.765625 48.109375 
Q 20.015625 56 32.328125 56 
Q 43.359375 56 49.78125 48.890625 
Q 56.203125 41.796875 56.203125 29.59375 
z
M 47.21875 32.234375 
Q 47.125 39.59375 43.09375 43.984375 
Q 39.0625 48.390625 32.421875 48.390625 
Q 24.90625 48.390625 20.390625 44.140625 
Q 15.875 39.890625 15.1875 32.171875 
z
" id="DejaVuSans-65"/>
     </defs>
     <g transform="translate(235.2125 332.716563)scale(0.1 -0.1)">
      <use xlink:href="#DejaVuSans-54"/>
      <use x="61.037109" xlink:href="#DejaVuSans-69"/>
      <use x="88.820312" xlink:href="#DejaVuSans-6d"/>
      <use x="186.232422" xlink:href="#DejaVuSans-65"/>
     </g>
    </g>
   </g>
   <g id="matplotlib.axis_2">
    <g id="ytick_1">
     <g id="line2d_15">
      <path clip-path="url(#p9d4e9544f2)" d="M 46.92 291.170909 
L 448.28 291.170909 
" style="fill:none;stroke:#b0b0b0;stroke-linecap:square;stroke-width:0.8;"/>
     </g>
     <g id="line2d_16">
      <defs>
       <path d="M 0 0 
L -3.5 0 
" id="m6f9cb85d09" style="stroke:#000000;stroke-width:0.8;"/>
      </defs>
      <g>
       <use style="stroke:#000000;stroke-width:0.8;" x="46.92" xlink:href="#m6f9cb85d09" y="291.170909"/>
      </g>
     </g>
     <g id="text_9">
      <!-- 0.0 -->
      <g transform="translate(24.016875 294.970128)scale(0.1 -0.1)">
       <use xlink:href="#DejaVuSans-30"/>
       <use x="63.623047" xlink:href="#DejaVuSans-2e"/>
       <use x="95.410156" xlink:href="#DejaVuSans-30"/>
      </g>
     </g>
    </g>
    <g id="ytick_2">
     <g id="line2d_17">
      <path clip-path="url(#p9d4e9544f2)" d="M 46.92 238.094545 
L 448.28 238.094545 
" style="fill:none;stroke:#b0b0b0;stroke-linecap:square;stroke-width:0.8;"/>
     </g>
     <g id="line2d_18">
      <g>
       <use style="stroke:#000000;stroke-width:0.8;" x="46.92" xlink:href="#m6f9cb85d09" y="238.094545"/>
      </g>
     </g>
     <g id="text_10">
      <!-- 0.2 -->
      <g transform="translate(24.016875 241.893764)scale(0.1 -0.1)">
       <use xlink:href="#DejaVuSans-30"/>
       <use x="63.623047" xlink:href="#DejaVuSans-2e"/>
       <use x="95.410156" xlink:href="#DejaVuSans-32"/>
      </g>
     </g>
    </g>
    <g id="ytick_3">
     <g id="line2d_19">
      <path clip-path="url(#p9d4e9544f2)" d="M 46.92 185.018182 
L 448.28 185.018182 
" style="fill:none;stroke:#b0b0b0;stroke-linecap:square;stroke-width:0.8;"/>
     </g>
     <g id="line2d_20">
      <g>
       <use style="stroke:#000000;stroke-width:0.8;" x="46.92" xlink:href="#m6f9cb85d09" y="185.018182"/>
      </g>
     </g>
     <g id="text_11">
      <!-- 0.4 -->
      <defs>
       <path d="M 37.796875 64.3125 
L 12.890625 25.390625 
L 37.796875 25.390625 
z
M 35.203125 72.90625 
L 47.609375 72.90625 
L 47.609375 25.390625 
L 58.015625 25.390625 
L 58.015625 17.1875 
L 47.609375 17.1875 
L 47.609375 0 
L 37.796875 0 
L 37.796875 17.1875 
L 4.890625 17.1875 
L 4.890625 26.703125 
z
" id="DejaVuSans-34"/>
      </defs>
      <g transform="translate(24.016875 188.817401)scale(0.1 -0.1)">
       <use xlink:href="#DejaVuSans-30"/>
       <use x="63.623047" xlink:href="#DejaVuSans-2e"/>
       <use x="95.410156" xlink:href="#DejaVuSans-34"/>
      </g>
     </g>
    </g>
    <g id="ytick_4">
     <g id="line2d_21">
      <path clip-path="url(#p9d4e9544f2)" d="M 46.92 131.941818 
L 448.28 131.941818 
" style="fill:none;stroke:#b0b0b0;stroke-linecap:square;stroke-width:0.8;"/>
     </g>
     <g id="line2d_22">
      <g>
       <use style="stroke:#000000;stroke-width:0.8;" x="46.92" xlink:href="#m6f9cb85d09" y="131.941818"/>
      </g>
     </g>
     <g id="text_12">
      <!-- 0.6 -->
      <defs>
       <path d="M 33.015625 40.375 
Q 26.375 40.375 22.484375 35.828125 
Q 18.609375 31.296875 18.609375 23.390625 
Q 18.609375 15.53125 22.484375 10.953125 
Q 26.375 6.390625 33.015625 6.390625 
Q 39.65625 6.390625 43.53125 10.953125 
Q 47.40625 15.53125 47.40625 23.390625 
Q 47.40625 31.296875 43.53125 35.828125 
Q 39.65625 40.375 33.015625 40.375 
z
M 52.59375 71.296875 
L 52.59375 62.3125 
Q 48.875 64.0625 45.09375 64.984375 
Q 41.3125 65.921875 37.59375 65.921875 
Q 27.828125 65.921875 22.671875 59.328125 
Q 17.53125 52.734375 16.796875 39.40625 
Q 19.671875 43.65625 24.015625 45.921875 
Q 28.375 48.1875 33.59375 48.1875 
Q 44.578125 48.1875 50.953125 41.515625 
Q 57.328125 34.859375 57.328125 23.390625 
Q 57.328125 12.15625 50.6875 5.359375 
Q 44.046875 -1.421875 33.015625 -1.421875 
Q 20.359375 -1.421875 13.671875 8.265625 
Q 6.984375 17.96875 6.984375 36.375 
Q 6.984375 53.65625 15.1875 63.9375 
Q 23.390625 74.21875 37.203125 74.21875 
Q 40.921875 74.21875 44.703125 73.484375 
Q 48.484375 72.75 52.59375 71.296875 
z
" id="DejaVuSans-36"/>
      </defs>
      <g transform="translate(24.016875 135.741037)scale(0.1 -0.1)">
       <use xlink:href="#DejaVuSans-30"/>
       <use x="63.623047" xlink:href="#DejaVuSans-2e"/>
       <use x="95.410156" xlink:href="#DejaVuSans-36"/>
      </g>
     </g>
    </g>
    <g id="ytick_5">
     <g id="line2d_23">
      <path clip-path="url(#p9d4e9544f2)" d="M 46.92 78.865455 
L 448.28 78.865455 
" style="fill:none;stroke:#b0b0b0;stroke-linecap:square;stroke-width:0.8;"/>
     </g>
     <g id="line2d_24">
      <g>
       <use style="stroke:#000000;stroke-width:0.8;" x="46.92" xlink:href="#m6f9cb85d09" y="78.865455"/>
      </g>
     </g>
     <g id="text_13">
      <!-- 0.8 -->
      <defs>
       <path d="M 31.78125 34.625 
Q 24.75 34.625 20.71875 30.859375 
Q 16.703125 27.09375 16.703125 20.515625 
Q 16.703125 13.921875 20.71875 10.15625 
Q 24.75 6.390625 31.78125 6.390625 
Q 38.8125 6.390625 42.859375 10.171875 
Q 46.921875 13.96875 46.921875 20.515625 
Q 46.921875 27.09375 42.890625 30.859375 
Q 38.875 34.625 31.78125 34.625 
z
M 21.921875 38.8125 
Q 15.578125 40.375 12.03125 44.71875 
Q 8.5 49.078125 8.5 55.328125 
Q 8.5 64.0625 14.71875 69.140625 
Q 20.953125 74.21875 31.78125 74.21875 
Q 42.671875 74.21875 48.875 69.140625 
Q 55.078125 64.0625 55.078125 55.328125 
Q 55.078125 49.078125 51.53125 44.71875 
Q 48 40.375 41.703125 38.8125 
Q 48.828125 37.15625 52.796875 32.3125 
Q 56.78125 27.484375 56.78125 20.515625 
Q 56.78125 9.90625 50.3125 4.234375 
Q 43.84375 -1.421875 31.78125 -1.421875 
Q 19.734375 -1.421875 13.25 4.234375 
Q 6.78125 9.90625 6.78125 20.515625 
Q 6.78125 27.484375 10.78125 32.3125 
Q 14.796875 37.15625 21.921875 38.8125 
z
M 18.3125 54.390625 
Q 18.3125 48.734375 21.84375 45.5625 
Q 25.390625 42.390625 31.78125 42.390625 
Q 38.140625 42.390625 41.71875 45.5625 
Q 45.3125 48.734375 45.3125 54.390625 
Q 45.3125 60.0625 41.71875 63.234375 
Q 38.140625 66.40625 31.78125 66.40625 
Q 25.390625 66.40625 21.84375 63.234375 
Q 18.3125 60.0625 18.3125 54.390625 
z
" id="DejaVuSans-38"/>
      </defs>
      <g transform="translate(24.016875 82.664673)scale(0.1 -0.1)">
       <use xlink:href="#DejaVuSans-30"/>
       <use x="63.623047" xlink:href="#DejaVuSans-2e"/>
       <use x="95.410156" xlink:href="#DejaVuSans-38"/>
      </g>
     </g>
    </g>
    <g id="ytick_6">
     <g id="line2d_25">
      <path clip-path="url(#p9d4e9544f2)" d="M 46.92 25.789091 
L 448.28 25.789091 
" style="fill:none;stroke:#b0b0b0;stroke-linecap:square;stroke-width:0.8;"/>
     </g>
     <g id="line2d_26">
      <g>
       <use style="stroke:#000000;stroke-width:0.8;" x="46.92" xlink:href="#m6f9cb85d09" y="25.789091"/>
      </g>
     </g>
     <g id="text_14">
      <!-- 1.0 -->
      <g transform="translate(24.016875 29.58831)scale(0.1 -0.1)">
       <use xlink:href="#DejaVuSans-31"/>
       <use x="63.623047" xlink:href="#DejaVuSans-2e"/>
       <use x="95.410156" xlink:href="#DejaVuSans-30"/>
      </g>
     </g>
    </g>
    <g id="text_15">
     <!-- Level Probabilities -->
     <defs>
      <path d="M 9.8125 72.90625 
L 19.671875 72.90625 
L 19.671875 8.296875 
L 55.171875 8.296875 
L 55.171875 0 
L 9.8125 0 
z
" id="DejaVuSans-4c"/>
      <path d="M 2.984375 54.6875 
L 12.5 54.6875 
L 29.59375 8.796875 
L 46.6875 54.6875 
L 56.203125 54.6875 
L 35.6875 0 
L 23.484375 0 
z
" id="DejaVuSans-76"/>
      <path d="M 9.421875 75.984375 
L 18.40625 75.984375 
L 18.40625 0 
L 9.421875 0 
z
" id="DejaVuSans-6c"/>
      <path id="DejaVuSans-20"/>
      <path d="M 19.671875 64.796875 
L 19.671875 37.40625 
L 32.078125 37.40625 
Q 38.96875 37.40625 42.71875 40.96875 
Q 46.484375 44.53125 46.484375 51.125 
Q 46.484375 57.671875 42.71875 61.234375 
Q 38.96875 64.796875 32.078125 64.796875 
z
M 9.8125 72.90625 
L 32.078125 72.90625 
Q 44.34375 72.90625 50.609375 67.359375 
Q 56.890625 61.8125 56.890625 51.125 
Q 56.890625 40.328125 50.609375 34.8125 
Q 44.34375 29.296875 32.078125 29.296875 
L 19.671875 29.296875 
L 19.671875 0 
L 9.8125 0 
z
" id="DejaVuSans-50"/>
      <path d="M 41.109375 46.296875 
Q 39.59375 47.171875 37.8125 47.578125 
Q 36.03125 48 33.890625 48 
Q 26.265625 48 22.1875 43.046875 
Q 18.109375 38.09375 18.109375 28.8125 
L 18.109375 0 
L 9.078125 0 
L 9.078125 54.6875 
L 18.109375 54.6875 
L 18.109375 46.1875 
Q 20.953125 51.171875 25.484375 53.578125 
Q 30.03125 56 36.53125 56 
Q 37.453125 56 38.578125 55.875 
Q 39.703125 55.765625 41.0625 55.515625 
z
" id="DejaVuSans-72"/>
      <path d="M 30.609375 48.390625 
Q 23.390625 48.390625 19.1875 42.75 
Q 14.984375 37.109375 14.984375 27.296875 
Q 14.984375 17.484375 19.15625 11.84375 
Q 23.34375 6.203125 30.609375 6.203125 
Q 37.796875 6.203125 41.984375 11.859375 
Q 46.1875 17.53125 46.1875 27.296875 
Q 46.1875 37.015625 41.984375 42.703125 
Q 37.796875 48.390625 30.609375 48.390625 
z
M 30.609375 56 
Q 42.328125 56 49.015625 48.375 
Q 55.71875 40.765625 55.71875 27.296875 
Q 55.71875 13.875 49.015625 6.21875 
Q 42.328125 -1.421875 30.609375 -1.421875 
Q 18.84375 -1.421875 12.171875 6.21875 
Q 5.515625 13.875 5.515625 27.296875 
Q 5.515625 40.765625 12.171875 48.375 
Q 18.84375 56 30.609375 56 
z
" id="DejaVuSans-6f"/>
      <path d="M 48.6875 27.296875 
Q 48.6875 37.203125 44.609375 42.84375 
Q 40.53125 48.484375 33.40625 48.484375 
Q 26.265625 48.484375 22.1875 42.84375 
Q 18.109375 37.203125 18.109375 27.296875 
Q 18.109375 17.390625 22.1875 11.75 
Q 26.265625 6.109375 33.40625 6.109375 
Q 40.53125 6.109375 44.609375 11.75 
Q 48.6875 17.390625 48.6875 27.296875 
z
M 18.109375 46.390625 
Q 20.953125 51.265625 25.265625 53.625 
Q 29.59375 56 35.59375 56 
Q 45.5625 56 51.78125 48.09375 
Q 58.015625 40.1875 58.015625 27.296875 
Q 58.015625 14.40625 51.78125 6.484375 
Q 45.5625 -1.421875 35.59375 -1.421875 
Q 29.59375 -1.421875 25.265625 0.953125 
Q 20.953125 3.328125 18.109375 8.203125 
L 18.109375 0 
L 9.078125 0 
L 9.078125 75.984375 
L 18.109375 75.984375 
z
" id="DejaVuSans-62"/>
      <path d="M 34.28125 27.484375 
Q 23.390625 27.484375 19.1875 25 
Q 14.984375 22.515625 14.984375 16.5 
Q 14.984375 11.71875 18.140625 8.90625 
Q 21.296875 6.109375 26.703125 6.109375 
Q 34.1875 6.109375 38.703125 11.40625 
Q 43.21875 16.703125 43.21875 25.484375 
L 43.21875 27.484375 
z
M 52.203125 31.203125 
L 52.203125 0 
L 43.21875 0 
L 43.21875 8.296875 
Q 40.140625 3.328125 35.546875 0.953125 
Q 30.953125 -1.421875 24.3125 -1.421875 
Q 15.921875 -1.421875 10.953125 3.296875 
Q 6 8.015625 6 15.921875 
Q 6 25.140625 12.171875 29.828125 
Q 18.359375 34.515625 30.609375 34.515625 
L 43.21875 34.515625 
L 43.21875 35.40625 
Q 43.21875 41.609375 39.140625 45 
Q 35.0625 48.390625 27.6875 48.390625 
Q 23 48.390625 18.546875 47.265625 
Q 14.109375 46.140625 10.015625 43.890625 
L 10.015625 52.203125 
Q 14.9375 54.109375 19.578125 55.046875 
Q 24.21875 56 28.609375 56 
Q 40.484375 56 46.34375 49.84375 
Q 52.203125 43.703125 52.203125 31.203125 
z
" id="DejaVuSans-61"/>
      <path d="M 18.3125 70.21875 
L 18.3125 54.6875 
L 36.8125 54.6875 
L 36.8125 47.703125 
L 18.3125 47.703125 
L 18.3125 18.015625 
Q 18.3125 11.328125 20.140625 9.421875 
Q 21.96875 7.515625 27.59375 7.515625 
L 36.8125 7.515625 
L 36.8125 0 
L 27.59375 0 
Q 17.1875 0 13.234375 3.875 
Q 9.28125 7.765625 9.28125 18.015625 
L 9.28125 47.703125 
L 2.6875 47.703125 
L 2.6875 54.6875 
L 9.28125 54.6875 
L 9.28125 70.21875 
z
" id="DejaVuSans-74"/>
      <path d="M 44.28125 53.078125 
L 44.28125 44.578125 
Q 40.484375 46.53125 36.375 47.5 
Q 32.28125 48.484375 27.875 48.484375 
Q 21.1875 48.484375 17.84375 46.4375 
Q 14.5 44.390625 14.5 40.28125 
Q 14.5 37.15625 16.890625 35.375 
Q 19.28125 33.59375 26.515625 31.984375 
L 29.59375 31.296875 
Q 39.15625 29.25 43.1875 25.515625 
Q 47.21875 21.78125 47.21875 15.09375 
Q 47.21875 7.46875 41.1875 3.015625 
Q 35.15625 -1.421875 24.609375 -1.421875 
Q 20.21875 -1.421875 15.453125 -0.5625 
Q 10.6875 0.296875 5.421875 2 
L 5.421875 11.28125 
Q 10.40625 8.6875 15.234375 7.390625 
Q 20.0625 6.109375 24.8125 6.109375 
Q 31.15625 6.109375 34.5625 8.28125 
Q 37.984375 10.453125 37.984375 14.40625 
Q 37.984375 18.0625 35.515625 20.015625 
Q 33.0625 21.96875 24.703125 23.78125 
L 21.578125 24.515625 
Q 13.234375 26.265625 9.515625 29.90625 
Q 5.8125 33.546875 5.8125 39.890625 
Q 5.8125 47.609375 11.28125 51.796875 
Q 16.75 56 26.8125 56 
Q 31.78125 56 36.171875 55.265625 
Q 40.578125 54.546875 44.28125 53.078125 
z
" id="DejaVuSans-73"/>
     </defs>
     <g transform="translate(17.937188 204.093281)rotate(-90)scale(0.1 -0.1)">
      <use xlink:href="#DejaVuSans-4c"/>
      <use x="55.697266" xlink:href="#DejaVuSans-65"/>
      <use x="117.220703" xlink:href="#DejaVuSans-76"/>
      <use x="176.400391" xlink:href="#DejaVuSans-65"/>
      <use x="237.923828" xlink:href="#DejaVuSans-6c"/>
      <use x="265.707031" xlink:href="#DejaVuSans-20"/>
      <use x="297.494141" xlink:href="#DejaVuSans-50"/>
      <use x="357.78125" xlink:href="#DejaVuSans-72"/>
      <use x="398.863281" xlink:href="#DejaVuSans-6f"/>
      <use x="460.044922" xlink:href="#DejaVuSans-62"/>
      <use x="523.521484" xlink:href="#DejaVuSans-61"/>
      <use x="584.800781" xlink:href="#DejaVuSans-62"/>
      <use x="648.277344" xlink:href="#DejaVuSans-69"/>
      <use x="676.060547" xlink:href="#DejaVuSans-6c"/>
      <use x="703.84375" xlink:href="#DejaVuSans-69"/>
      <use x="731.626953" xlink:href="#DejaVuSans-74"/>
      <use x="770.835938" xlink:href="#DejaVuSans-69"/>
      <use x="798.619141" xlink:href="#DejaVuSans-65"/>
      <use x="860.142578" xlink:href="#DejaVuSans-73"/>
     </g>
    </g>
   </g>
   <g id="line2d_27">
    <path clip-path="url(#p9d4e9544f2)" d="M 65.163636 25.789091 
L 66.379879 25.854566 
L 67.596121 26.050923 
L 68.812364 26.37796 
L 70.028606 26.835343 
L 71.244848 27.422602 
L 73.677333 28.984202 
L 76.109818 31.056352 
L 78.542303 33.630547 
L 80.974788 36.696221 
L 83.407273 40.240792 
L 85.839758 44.249712 
L 88.272242 48.706526 
L 90.704727 53.592943 
L 93.137212 58.888906 
L 95.569697 64.57268 
L 99.218424 73.774043 
L 102.867152 83.710203 
L 106.515879 94.289441 
L 111.380848 109.225907 
L 116.245818 124.886467 
L 123.543273 149.170929 
L 134.489455 185.606075 
L 139.354424 201.118871 
L 144.219394 215.848664 
L 147.868121 226.236246 
L 151.516848 235.95127 
L 155.165576 244.90406 
L 157.598061 250.407999 
L 160.030545 255.513687 
L 162.46303 260.200168 
L 164.895515 264.448208 
L 167.328 268.24037 
L 169.760485 271.56109 
L 172.19297 274.39674 
L 174.625455 276.73568 
L 177.057939 278.56831 
L 179.490424 279.88711 
L 180.706667 280.352048 
L 181.922909 280.686665 
L 183.139152 280.890617 
L 184.355394 280.963695 
L 185.571636 280.905824 
L 186.787879 280.717063 
L 188.004121 280.397605 
L 189.220364 279.94778 
L 190.436606 279.368048 
L 192.869091 277.821376 
L 195.301576 275.76394 
L 197.734061 273.204182 
L 200.166545 270.15261 
L 202.59903 266.621747 
L 205.031515 262.626086 
L 207.464 258.182027 
L 209.896485 253.307809 
L 212.32897 248.023438 
L 214.761455 242.350602 
L 218.410182 233.164324 
L 222.058909 223.241536 
L 225.707636 212.673836 
L 230.572606 197.74972 
L 235.437576 182.097858 
L 242.73503 157.819302 
L 253.681212 121.37665 
L 258.546182 105.854335 
L 263.411152 91.111411 
L 267.059879 80.711739 
L 270.708606 70.982824 
L 274.357333 62.014472 
L 276.789818 56.4993 
L 279.222303 51.381746 
L 281.654788 46.682814 
L 284.087273 42.42179 
L 286.519758 38.616164 
L 288.952242 35.281554 
L 291.384727 32.431647 
L 293.817212 30.078141 
L 296.249697 28.230694 
L 298.682182 26.896889 
L 299.898424 26.424397 
L 301.114667 26.082201 
L 302.330909 25.870655 
L 303.547152 25.789974 
L 304.763394 25.840242 
L 305.979636 26.021407 
L 307.195879 26.333282 
L 308.412121 26.775549 
L 309.628364 27.347753 
L 310.844606 28.049306 
L 313.277091 29.837451 
L 315.709576 32.132642 
L 318.142061 34.925461 
L 320.574545 38.204445 
L 323.00703 41.956135 
L 325.439515 46.165134 
L 327.872 50.814165 
L 330.304485 55.884149 
L 332.73697 61.354275 
L 336.385697 70.260193 
L 340.034424 79.933345 
L 343.683152 90.284439 
L 347.331879 101.217925 
L 352.196848 116.526754 
L 358.278061 136.48224 
L 375.305455 192.99372 
L 380.170424 208.168754 
L 383.819152 218.973402 
L 387.467879 229.172535 
L 391.116606 238.672006 
L 394.765333 247.384129 
L 397.197818 252.714759 
L 399.630303 257.63767 
L 402.062788 262.132657 
L 404.495273 266.18127 
L 406.927758 269.766892 
L 409.360242 272.874808 
L 411.792727 275.492261 
L 414.225212 277.608508 
L 416.657697 279.214863 
L 417.873939 279.824688 
L 419.090182 280.304733 
L 420.306424 280.654505 
L 421.522667 280.873646 
L 422.738909 280.961929 
L 423.955152 280.919265 
L 425.171394 280.745697 
L 426.387636 280.441404 
L 427.603879 280.006698 
L 428.820121 279.442024 
L 430.036364 278.747963 
L 430.036364 278.747963 
" style="fill:none;stroke:#1f77b4;stroke-linecap:square;stroke-width:1.5;"/>
   </g>
   <g id="line2d_28">
    <path clip-path="url(#p9d4e9544f2)" d="M 65.163636 291.170909 
L 66.379879 291.105434 
L 67.596121 290.909077 
L 68.812364 290.58204 
L 70.028606 290.124657 
L 71.244848 289.537398 
L 73.677333 287.975798 
L 76.109818 285.903648 
L 78.542303 283.329453 
L 80.974788 280.263779 
L 83.407273 276.719208 
L 85.839758 272.710288 
L 88.272242 268.253474 
L 90.704727 263.367057 
L 93.137212 258.071094 
L 95.569697 252.38732 
L 99.218424 243.185957 
L 102.867152 233.249797 
L 106.515879 222.670559 
L 111.380848 207.734093 
L 116.245818 192.073533 
L 123.543273 167.789071 
L 134.489455 131.353925 
L 139.354424 115.841129 
L 144.219394 101.111336 
L 147.868121 90.723754 
L 151.516848 81.00873 
L 155.165576 72.05594 
L 157.598061 66.552001 
L 160.030545 61.446313 
L 162.46303 56.759832 
L 164.895515 52.511792 
L 167.328 48.71963 
L 169.760485 45.39891 
L 172.19297 42.56326 
L 174.625455 40.22432 
L 177.057939 38.39169 
L 179.490424 37.07289 
L 180.706667 36.607952 
L 181.922909 36.273335 
L 183.139152 36.069383 
L 184.355394 35.996305 
L 185.571636 36.054176 
L 186.787879 36.242937 
L 188.004121 36.562395 
L 189.220364 37.01222 
L 190.436606 37.591952 
L 192.869091 39.138624 
L 195.301576 41.19606 
L 197.734061 43.755818 
L 200.166545 46.80739 
L 202.59903 50.338253 
L 205.031515 54.333914 
L 207.464 58.777973 
L 209.896485 63.652191 
L 212.32897 68.936562 
L 214.761455 74.609398 
L 218.410182 83.795676 
L 222.058909 93.718464 
L 225.707636 104.286164 
L 230.572606 119.21028 
L 235.437576 134.862142 
L 242.73503 159.140698 
L 253.681212 195.58335 
L 258.546182 211.105665 
L 263.411152 225.848589 
L 267.059879 236.248261 
L 270.708606 245.977176 
L 274.357333 254.945528 
L 276.789818 260.4607 
L 279.222303 265.578254 
L 281.654788 270.277186 
L 284.087273 274.53821 
L 286.519758 278.343836 
L 288.952242 281.678446 
L 291.384727 284.528353 
L 293.817212 286.881859 
L 296.249697 288.729306 
L 298.682182 290.063111 
L 299.898424 290.535603 
L 301.114667 290.877799 
L 302.330909 291.089345 
L 303.547152 291.170026 
L 304.763394 291.119758 
L 305.979636 290.938593 
L 307.195879 290.626718 
L 308.412121 290.184451 
L 309.628364 289.612247 
L 310.844606 288.910694 
L 313.277091 287.122549 
L 315.709576 284.827358 
L 318.142061 282.034539 
L 320.574545 278.755555 
L 323.00703 275.003865 
L 325.439515 270.794866 
L 327.872 266.145835 
L 330.304485 261.075851 
L 332.73697 255.605725 
L 336.385697 246.699807 
L 340.034424 237.026655 
L 343.683152 226.675561 
L 347.331879 215.742075 
L 352.196848 200.433246 
L 358.278061 180.47776 
L 375.305455 123.96628 
L 380.170424 108.791246 
L 383.819152 97.986598 
L 387.467879 87.787465 
L 391.116606 78.287994 
L 394.765333 69.575871 
L 397.197818 64.245241 
L 399.630303 59.32233 
L 402.062788 54.827343 
L 404.495273 50.77873 
L 406.927758 47.193108 
L 409.360242 44.085192 
L 411.792727 41.467739 
L 414.225212 39.351492 
L 416.657697 37.745137 
L 417.873939 37.135312 
L 419.090182 36.655267 
L 420.306424 36.305495 
L 421.522667 36.086354 
L 422.738909 35.998071 
L 423.955152 36.040735 
L 425.171394 36.214303 
L 426.387636 36.518596 
L 427.603879 36.953302 
L 428.820121 37.517976 
L 430.036364 38.212037 
L 430.036364 38.212037 
" style="fill:none;stroke:#ff7f0e;stroke-linecap:square;stroke-width:1.5;"/>
   </g>
   <g id="line2d_29">
    <path clip-path="url(#p9d4e9544f2)" d="M 65.163636 25.789091 
L 66.379879 25.854566 
L 67.596121 26.050923 
L 68.812364 26.37796 
L 70.028606 26.835343 
L 71.244848 27.422602 
L 73.677333 28.984202 
L 76.109818 31.056352 
L 78.542303 33.630547 
L 80.974788 36.696221 
L 83.407273 40.240792 
L 85.839758 44.249712 
L 88.272242 48.706526 
L 90.704727 53.592943 
L 93.137212 58.888906 
L 95.569697 64.57268 
L 99.218424 73.774043 
L 102.867152 83.710203 
L 106.515879 94.289441 
L 111.380848 109.225907 
L 116.245818 124.886467 
L 123.543273 149.170929 
L 134.489455 185.606075 
L 139.354424 201.118871 
L 144.219394 215.848664 
L 147.868121 226.236246 
L 151.516848 235.95127 
L 155.165576 244.90406 
L 157.598061 250.407999 
L 160.030545 255.513687 
L 162.46303 260.200168 
L 164.895515 264.448208 
L 167.328 268.24037 
L 169.760485 271.56109 
L 172.19297 274.39674 
L 174.625455 276.73568 
L 177.057939 278.56831 
L 179.490424 279.88711 
L 180.706667 280.352048 
L 181.922909 280.686665 
L 183.139152 280.890617 
L 184.355394 280.963695 
L 185.571636 280.905824 
L 186.787879 280.717063 
L 188.004121 280.397605 
L 189.220364 279.94778 
L 190.436606 279.368048 
L 192.869091 277.821376 
L 195.301576 275.76394 
L 197.734061 273.204182 
L 200.166545 270.15261 
L 202.59903 266.621747 
L 205.031515 262.626086 
L 207.464 258.182027 
L 209.896485 253.307809 
L 212.32897 248.023438 
L 214.761455 242.350602 
L 218.410182 233.164324 
L 222.058909 223.241536 
L 225.707636 212.673836 
L 230.572606 197.74972 
L 235.437576 182.097858 
L 242.73503 157.819302 
L 253.681212 121.37665 
L 258.546182 105.854335 
L 263.411152 91.111411 
L 267.059879 80.711739 
L 270.708606 70.982824 
L 274.357333 62.014472 
L 276.789818 56.4993 
L 279.222303 51.381746 
L 281.654788 46.682814 
L 284.087273 42.42179 
L 286.519758 38.616164 
L 288.952242 35.281554 
L 291.384727 32.431647 
L 293.817212 30.078141 
L 296.249697 28.230694 
L 298.682182 26.896889 
L 299.898424 26.424397 
L 301.114667 26.082201 
L 302.330909 25.870655 
L 303.547152 25.789974 
L 304.763394 25.840242 
L 305.979636 26.021407 
L 307.195879 26.333282 
L 308.412121 26.775549 
L 309.628364 27.347753 
L 310.844606 28.049306 
L 313.277091 29.837451 
L 315.709576 32.132642 
L 318.142061 34.925461 
L 320.574545 38.204445 
L 323.00703 41.956135 
L 325.439515 46.165134 
L 327.872 50.814165 
L 330.304485 55.884149 
L 332.73697 61.354275 
L 336.385697 70.260193 
L 340.034424 79.933345 
L 343.683152 90.284439 
L 347.331879 101.217925 
L 352.196848 116.526754 
L 358.278061 136.48224 
L 375.305455 192.99372 
L 380.170424 208.168754 
L 383.819152 218.973402 
L 387.467879 229.172535 
L 391.116606 238.672006 
L 394.765333 247.384129 
L 397.197818 252.714759 
L 399.630303 257.63767 
L 402.062788 262.132656 
L 404.495273 266.18127 
L 406.927758 269.766892 
L 409.360242 272.874808 
L 411.792727 275.492261 
L 414.225212 277.608508 
L 416.657697 279.214863 
L 417.873939 279.824688 
L 419.090182 280.304733 
L 420.306424 280.654505 
L 421.522667 280.873646 
L 422.738909 280.961929 
L 423.955152 280.919265 
L 425.171394 280.745697 
L 426.387636 280.441404 
L 427.603879 280.006698 
L 428.820121 279.442024 
L 430.036364 278.747963 
L 430.036364 278.747963 
" style="fill:none;stroke:#2ca02c;stroke-linecap:square;stroke-width:1.5;"/>
   </g>
   <g id="line2d_30">
    <path clip-path="url(#p9d4e9544f2)" d="M 65.163636 291.170909 
L 66.379879 291.105434 
L 67.596121 290.909077 
L 68.812364 290.58204 
L 70.028606 290.124657 
L 71.244848 289.537398 
L 73.677333 287.975798 
L 76.109818 285.903648 
L 78.542303 283.329453 
L 80.974788 280.263779 
L 83.407273 276.719208 
L 85.839758 272.710288 
L 88.272242 268.253474 
L 90.704727 263.367057 
L 93.137212 258.071094 
L 95.569697 252.38732 
L 99.218424 243.185957 
L 102.867152 233.249797 
L 106.515879 222.670559 
L 111.380848 207.734093 
L 116.245818 192.073533 
L 123.543273 167.789071 
L 134.489455 131.353925 
L 139.354424 115.841129 
L 144.219394 101.111336 
L 147.868121 90.723754 
L 151.516848 81.00873 
L 155.165576 72.05594 
L 157.598061 66.552001 
L 160.030545 61.446313 
L 162.46303 56.759832 
L 164.895515 52.511792 
L 167.328 48.71963 
L 169.760485 45.39891 
L 172.19297 42.56326 
L 174.625455 40.22432 
L 177.057939 38.39169 
L 179.490424 37.07289 
L 180.706667 36.607952 
L 181.922909 36.273335 
L 183.139152 36.069383 
L 184.355394 35.996305 
L 185.571636 36.054176 
L 186.787879 36.242937 
L 188.004121 36.562395 
L 189.220364 37.01222 
L 190.436606 37.591952 
L 192.869091 39.138624 
L 195.301576 41.19606 
L 197.734061 43.755818 
L 200.166545 46.80739 
L 202.59903 50.338253 
L 205.031515 54.333914 
L 207.464 58.777973 
L 209.896485 63.652191 
L 212.32897 68.936562 
L 214.761455 74.609398 
L 218.410182 83.795676 
L 222.058909 93.718464 
L 225.707636 104.286164 
L 230.572606 119.21028 
L 235.437576 134.862142 
L 242.73503 159.140698 
L 253.681212 195.58335 
L 258.546182 211.105665 
L 263.411152 225.848589 
L 267.059879 236.248261 
L 270.708606 245.977176 
L 274.357333 254.945528 
L 276.789818 260.4607 
L 279.222303 265.578254 
L 281.654788 270.277186 
L 284.087273 274.53821 
L 286.519758 278.343836 
L 288.952242 281.678446 
L 291.384727 284.528353 
L 293.817212 286.881859 
L 296.249697 288.729306 
L 298.682182 290.063111 
L 299.898424 290.535603 
L 301.114667 290.877799 
L 302.330909 291.089345 
L 303.547152 291.170026 
L 304.763394 291.119758 
L 305.979636 290.938593 
L 307.195879 290.626718 
L 308.412121 290.184451 
L 309.628364 289.612247 
L 310.844606 288.910694 
L 313.277091 287.122549 
L 315.709576 284.827358 
L 318.142061 282.034539 
L 320.574545 278.755555 
L 323.00703 275.003865 
L 325.439515 270.794866 
L 327.872 266.145835 
L 330.304485 261.075851 
L 332.73697 255.605725 
L 336.385697 246.699807 
L 340.034424 237.026655 
L 343.683152 226.675561 
L 347.331879 215.742075 
L 352.196848 200.433246 
L 358.278061 180.47776 
L 375.305455 123.96628 
L 380.170424 108.791246 
L 383.819152 97.986598 
L 387.467879 87.787465 
L 391.116606 78.287994 
L 394.765333 69.575871 
L 397.197818 64.245241 
L 399.630303 59.32233 
L 402.062788 54.827344 
L 404.495273 50.77873 
L 406.927758 47.193108 
L 409.360242 44.085192 
L 411.792727 41.467739 
L 414.225212 39.351492 
L 416.657697 37.745137 
L 417.873939 37.135312 
L 419.090182 36.655267 
L 420.306424 36.305495 
L 421.522667 36.086354 
L 422.738909 35.998071 
L 423.955152 36.040735 
L 425.171394 36.214303 
L 426.387636 36.518596 
L 427.603879 36.953302 
L 428.820121 37.517976 
L 430.036364 38.212037 
L 430.036364 38.212037 
" style="fill:none;stroke:#d62728;stroke-linecap:square;stroke-width:1.5;"/>
   </g>
   <g id="patch_3">
    <path d="M 46.92 304.44 
L 46.92 12.52 
" style="fill:none;stroke:#000000;stroke-linecap:square;stroke-linejoin:miter;stroke-width:0.8;"/>
   </g>
   <g id="patch_4">
    <path d="M 448.28 304.44 
L 448.28 12.52 
" style="fill:none;stroke:#000000;stroke-linecap:square;stroke-linejoin:miter;stroke-width:0.8;"/>
   </g>
   <g id="patch_5">
    <path d="M 46.92 304.44 
L 448.28 304.44 
" style="fill:none;stroke:#000000;stroke-linecap:square;stroke-linejoin:miter;stroke-width:0.8;"/>
   </g>
   <g id="patch_6">
    <path d="M 46.92 12.52 
L 448.28 12.52 
" style="fill:none;stroke:#000000;stroke-linecap:square;stroke-linejoin:miter;stroke-width:0.8;"/>
   </g>
   <g id="legend_1">
    <g id="patch_7">
     <path d="M 199.55625 189.98 
L 295.64375 189.98 
Q 297.64375 189.98 297.64375 187.98 
L 297.64375 128.98 
Q 297.64375 126.98 295.64375 126.98 
L 199.55625 126.98 
Q 197.55625 126.98 197.55625 128.98 
L 197.55625 187.98 
Q 197.55625 189.98 199.55625 189.98 
z
" style="fill:#ffffff;opacity:0.8;stroke:#cccccc;stroke-linejoin:miter;"/>
    </g>
    <g id="line2d_31">
     <path d="M 201.55625 135.122187 
L 221.55625 135.122187 
" style="fill:none;stroke:#1f77b4;stroke-linecap:square;stroke-width:1.5;"/>
    </g>
    <g id="line2d_32"/>
    <g id="text_16">
     <!-- |g⟩ -->
     <defs>
      <path d="M 21 76.421875 
L 21 -23.578125 
L 12.703125 -23.578125 
L 12.703125 76.421875 
z
" id="DejaVuSans-7c"/>
      <path d="M 45.40625 27.984375 
Q 45.40625 37.75 41.375 43.109375 
Q 37.359375 48.484375 30.078125 48.484375 
Q 22.859375 48.484375 18.828125 43.109375 
Q 14.796875 37.75 14.796875 27.984375 
Q 14.796875 18.265625 18.828125 12.890625 
Q 22.859375 7.515625 30.078125 7.515625 
Q 37.359375 7.515625 41.375 12.890625 
Q 45.40625 18.265625 45.40625 27.984375 
z
M 54.390625 6.78125 
Q 54.390625 -7.171875 48.1875 -13.984375 
Q 42 -20.796875 29.203125 -20.796875 
Q 24.46875 -20.796875 20.265625 -20.09375 
Q 16.0625 -19.390625 12.109375 -17.921875 
L 12.109375 -9.1875 
Q 16.0625 -11.328125 19.921875 -12.34375 
Q 23.78125 -13.375 27.78125 -13.375 
Q 36.625 -13.375 41.015625 -8.765625 
Q 45.40625 -4.15625 45.40625 5.171875 
L 45.40625 9.625 
Q 42.625 4.78125 38.28125 2.390625 
Q 33.9375 0 27.875 0 
Q 17.828125 0 11.671875 7.65625 
Q 5.515625 15.328125 5.515625 27.984375 
Q 5.515625 40.671875 11.671875 48.328125 
Q 17.828125 56 27.875 56 
Q 33.9375 56 38.28125 53.609375 
Q 42.625 51.21875 45.40625 46.390625 
L 45.40625 54.6875 
L 54.390625 54.6875 
z
" id="DejaVuSans-67"/>
      <path d="M 30.078125 31.34375 
L 16.3125 -13.1875 
L 8.015625 -13.1875 
L 21.78125 31.34375 
L 8.015625 75.875 
L 16.3125 75.875 
z
" id="DejaVuSans-27e9"/>
     </defs>
     <g transform="translate(229.55625 138.622187)scale(0.1 -0.1)">
      <use xlink:href="#DejaVuSans-7c"/>
      <use x="33.691406" xlink:href="#DejaVuSans-67"/>
      <use x="97.167969" xlink:href="#DejaVuSans-27e9"/>
     </g>
    </g>
    <g id="line2d_33">
     <path d="M 201.55625 150.122187 
L 221.55625 150.122187 
" style="fill:none;stroke:#ff7f0e;stroke-linecap:square;stroke-width:1.5;"/>
    </g>
    <g id="line2d_34"/>
    <g id="text_17">
     <!-- |e⟩ -->
     <g transform="translate(229.55625 153.622187)scale(0.1 -0.1)">
      <use xlink:href="#DejaVuSans-7c"/>
      <use x="33.691406" xlink:href="#DejaVuSans-65"/>
      <use x="95.214844" xlink:href="#DejaVuSans-27e9"/>
     </g>
    </g>
    <g id="line2d_35">
     <path d="M 201.55625 165.122187 
L 221.55625 165.122187 
" style="fill:none;stroke:#2ca02c;stroke-linecap:square;stroke-width:1.5;"/>
    </g>
    <g id="line2d_36"/>
    <g id="text_18">
     <!-- |g⟩ (analytic) -->
     <defs>
      <path d="M 31 75.875 
Q 24.46875 64.65625 21.28125 53.65625 
Q 18.109375 42.671875 18.109375 31.390625 
Q 18.109375 20.125 21.3125 9.0625 
Q 24.515625 -2 31 -13.1875 
L 23.1875 -13.1875 
Q 15.875 -1.703125 12.234375 9.375 
Q 8.59375 20.453125 8.59375 31.390625 
Q 8.59375 42.28125 12.203125 53.3125 
Q 15.828125 64.359375 23.1875 75.875 
z
" id="DejaVuSans-28"/>
      <path d="M 54.890625 33.015625 
L 54.890625 0 
L 45.90625 0 
L 45.90625 32.71875 
Q 45.90625 40.484375 42.875 44.328125 
Q 39.84375 48.1875 33.796875 48.1875 
Q 26.515625 48.1875 22.3125 43.546875 
Q 18.109375 38.921875 18.109375 30.90625 
L 18.109375 0 
L 9.078125 0 
L 9.078125 54.6875 
L 18.109375 54.6875 
L 18.109375 46.1875 
Q 21.34375 51.125 25.703125 53.5625 
Q 30.078125 56 35.796875 56 
Q 45.21875 56 50.046875 50.171875 
Q 54.890625 44.34375 54.890625 33.015625 
z
" id="DejaVuSans-6e"/>
      <path d="M 32.171875 -5.078125 
Q 28.375 -14.84375 24.75 -17.8125 
Q 21.140625 -20.796875 15.09375 -20.796875 
L 7.90625 -20.796875 
L 7.90625 -13.28125 
L 13.1875 -13.28125 
Q 16.890625 -13.28125 18.9375 -11.515625 
Q 21 -9.765625 23.484375 -3.21875 
L 25.09375 0.875 
L 2.984375 54.6875 
L 12.5 54.6875 
L 29.59375 11.921875 
L 46.6875 54.6875 
L 56.203125 54.6875 
z
" id="DejaVuSans-79"/>
      <path d="M 48.78125 52.59375 
L 48.78125 44.1875 
Q 44.96875 46.296875 41.140625 47.34375 
Q 37.3125 48.390625 33.40625 48.390625 
Q 24.65625 48.390625 19.8125 42.84375 
Q 14.984375 37.3125 14.984375 27.296875 
Q 14.984375 17.28125 19.8125 11.734375 
Q 24.65625 6.203125 33.40625 6.203125 
Q 37.3125 6.203125 41.140625 7.25 
Q 44.96875 8.296875 48.78125 10.40625 
L 48.78125 2.09375 
Q 45.015625 0.34375 40.984375 -0.53125 
Q 36.96875 -1.421875 32.421875 -1.421875 
Q 20.0625 -1.421875 12.78125 6.34375 
Q 5.515625 14.109375 5.515625 27.296875 
Q 5.515625 40.671875 12.859375 48.328125 
Q 20.21875 56 33.015625 56 
Q 37.15625 56 41.109375 55.140625 
Q 45.0625 54.296875 48.78125 52.59375 
z
" id="DejaVuSans-63"/>
      <path d="M 8.015625 75.875 
L 15.828125 75.875 
Q 23.140625 64.359375 26.78125 53.3125 
Q 30.421875 42.28125 30.421875 31.390625 
Q 30.421875 20.453125 26.78125 9.375 
Q 23.140625 -1.703125 15.828125 -13.1875 
L 8.015625 -13.1875 
Q 14.5 -2 17.703125 9.0625 
Q 20.90625 20.125 20.90625 31.390625 
Q 20.90625 42.671875 17.703125 53.65625 
Q 14.5 64.65625 8.015625 75.875 
z
" id="DejaVuSans-29"/>
     </defs>
     <g transform="translate(229.55625 168.622187)scale(0.1 -0.1)">
      <use xlink:href="#DejaVuSans-7c"/>
      <use x="33.691406" xlink:href="#DejaVuSans-67"/>
      <use x="97.167969" xlink:href="#DejaVuSans-27e9"/>
      <use x="136.181641" xlink:href="#DejaVuSans-20"/>
      <use x="167.96875" xlink:href="#DejaVuSans-28"/>
      <use x="206.982422" xlink:href="#DejaVuSans-61"/>
      <use x="268.261719" xlink:href="#DejaVuSans-6e"/>
      <use x="331.640625" xlink:href="#DejaVuSans-61"/>
      <use x="392.919922" xlink:href="#DejaVuSans-6c"/>
      <use x="420.703125" xlink:href="#DejaVuSans-79"/>
      <use x="479.882812" xlink:href="#DejaVuSans-74"/>
      <use x="519.091797" xlink:href="#DejaVuSans-69"/>
      <use x="546.875" xlink:href="#DejaVuSans-63"/>
      <use x="601.855469" xlink:href="#DejaVuSans-29"/>
     </g>
    </g>
    <g id="line2d_37">
     <path d="M 201.55625 180.122187 
L 221.55625 180.122187 
" style="fill:none;stroke:#d62728;stroke-linecap:square;stroke-width:1.5;"/>
    </g>
    <g id="line2d_38"/>
    <g id="text_19">
     <!-- |e⟩ (analytic) -->
     <g transform="translate(229.55625 183.622187)scale(0.1 -0.1)">
      <use xlink:href="#DejaVuSans-7c"/>
      <use x="33.691406" xlink:href="#DejaVuSans-65"/>
      <use x="95.214844" xlink:href="#DejaVuSans-27e9"/>
      <use x="134.228516" xlink:href="#DejaVuSans-20"/>
      <use x="166.015625" xlink:href="#DejaVuSans-28"/>
      <use x="205.029297" xlink:href="#DejaVuSans-61"/>
      <use x="266.308594" xlink:href="#DejaVuSans-6e"/>
      <use x="329.6875" xlink:href="#DejaVuSans-61"/>
      <use x="390.966797" xlink:href="#DejaVuSans-6c"/>
      <use x="418.75" xlink:href="#DejaVuSans-79"/>
      <use x="477.929688" xlink:href="#DejaVuSans-74"/>
      <use x="517.138672" xlink:href="#DejaVuSans-69"/>
      <use x="544.921875" xlink:href="#DejaVuSans-63"/>
      <use x="599.902344" xlink:href="#DejaVuSans-29"/>
     </g>
    </g>
   </g>
  </g>
 </g>
 <defs>
  <clipPath id="p9d4e9544f2">
   <rect height="291.92" width="401.36" x="46.92" y="12.52"/>
  </clipPath>
 </defs>
</svg>
